<svg id="svg" version="1.1" xmlns="http://www.w3.org/2000/svg" xmlns:xlink="http://www.w3.org/1999/xlink" width="400" height="400" viewBox="0, 0, 400,400"><g id="svgg"><path id="path0" d="M70.300 78.760 C 70.025 78.848,69.670 79.118,69.511 79.360 C 68.782 80.468,69.184 275.994,69.916 276.621 C 70.599 277.206,215.874 277.572,216.814 276.991 C 216.992 276.881,220.617 276.630,224.869 276.432 C 230.732 276.159,232.913 275.912,233.895 275.410 C 234.607 275.045,235.357 274.850,235.560 274.976 C 236.064 275.287,244.031 274.441,244.877 273.986 C 245.249 273.786,247.198 273.422,249.208 273.178 C 251.217 272.933,253.472 272.478,254.218 272.167 C 254.964 271.855,256.000 271.600,256.520 271.600 C 257.040 271.600,258.711 271.233,260.233 270.786 C 261.755 270.338,264.260 269.610,265.800 269.168 C 270.864 267.715,277.377 265.537,279.400 264.620 C 280.060 264.321,281.770 263.595,283.200 263.008 C 284.630 262.420,286.532 261.593,287.426 261.170 C 288.321 260.746,289.166 260.400,289.305 260.400 C 289.444 260.400,290.632 259.770,291.946 259.000 C 293.260 258.230,294.592 257.600,294.906 257.600 C 295.220 257.600,295.893 257.240,296.400 256.800 C 296.907 256.360,297.520 255.999,297.761 255.997 C 298.149 255.995,303.151 252.971,304.200 252.105 C 304.420 251.924,305.562 251.275,306.737 250.664 C 309.909 249.015,314.297 245.843,318.919 241.856 C 320.853 240.187,332.173 229.013,333.097 227.860 C 334.430 226.197,338.737 220.365,339.800 218.785 C 340.460 217.803,341.182 216.805,341.405 216.567 C 341.628 216.328,342.944 213.808,344.330 210.967 C 345.716 208.125,347.109 205.290,347.425 204.668 C 347.741 204.045,348.000 203.247,348.000 202.894 C 348.000 202.541,348.332 201.521,348.739 200.626 C 349.786 198.321,350.629 195.193,351.387 190.800 C 351.748 188.710,352.213 186.025,352.422 184.833 C 353.467 178.846,352.478 164.187,350.543 157.000 C 350.188 155.680,349.806 154.060,349.694 153.400 C 349.582 152.740,349.245 151.845,348.945 151.411 C 348.645 150.977,348.400 150.340,348.400 149.996 C 348.400 149.651,348.040 148.663,347.600 147.800 C 347.160 146.937,346.799 146.044,346.797 145.815 C 346.793 145.049,341.696 135.217,341.064 134.754 C 340.879 134.619,340.519 134.149,340.264 133.711 C 336.496 127.238,325.980 115.649,319.967 111.342 C 318.555 110.331,317.220 109.296,317.000 109.042 C 316.646 108.633,313.030 106.085,311.258 104.995 C 309.597 103.974,308.182 102.994,307.991 102.733 C 307.578 102.168,304.949 100.537,302.400 99.263 C 299.615 97.871,298.771 97.403,297.200 96.382 C 296.650 96.024,295.660 95.598,295.000 95.435 C 294.340 95.271,293.530 94.918,293.200 94.650 C 292.870 94.382,291.520 93.752,290.200 93.250 C 288.880 92.748,287.060 91.992,286.156 91.569 C 285.252 91.146,284.257 90.800,283.945 90.800 C 283.633 90.800,283.023 90.556,282.589 90.257 C 282.155 89.958,280.854 89.490,279.699 89.217 C 278.543 88.943,277.507 88.573,277.397 88.395 C 277.286 88.216,276.452 87.944,275.542 87.790 C 274.632 87.637,273.148 87.175,272.244 86.764 C 271.340 86.354,269.947 86.014,269.149 86.009 C 268.351 86.004,267.488 85.747,267.231 85.437 C 266.974 85.128,265.647 84.748,264.282 84.593 C 262.917 84.438,261.254 84.087,260.588 83.813 C 259.921 83.539,258.317 83.182,257.023 83.020 C 255.730 82.859,254.385 82.582,254.036 82.405 C 253.203 81.985,248.006 81.200,246.054 81.200 C 245.212 81.200,244.000 80.945,243.361 80.633 C 240.789 79.376,74.013 77.571,70.300 78.760 M225.077 106.793 C 226.000 107.017,227.928 107.200,229.363 107.200 C 233.210 107.200,239.980 107.987,241.708 108.635 C 242.538 108.946,244.031 109.200,245.028 109.200 C 246.024 109.200,247.326 109.449,247.920 109.753 C 248.514 110.057,249.990 110.438,251.200 110.600 C 252.410 110.762,253.850 111.109,254.400 111.373 C 254.950 111.637,256.390 112.091,257.600 112.382 C 258.810 112.674,260.155 113.157,260.589 113.456 C 261.023 113.755,261.838 114.000,262.400 114.000 C 262.962 114.000,263.777 114.246,264.211 114.546 C 264.645 114.846,265.450 115.226,266.000 115.390 C 268.141 116.027,278.354 120.985,280.400 122.380 C 280.730 122.605,281.930 123.286,283.068 123.895 C 284.205 124.503,285.887 125.630,286.805 126.400 C 287.723 127.170,289.221 128.430,290.134 129.200 C 294.384 132.786,300.425 139.203,302.586 142.429 C 303.239 143.403,304.309 144.900,304.965 145.757 C 306.235 147.416,306.738 148.281,308.540 151.906 C 310.922 156.696,312.800 161.916,312.800 163.743 C 312.800 164.338,313.054 165.433,313.364 166.175 C 314.115 167.972,314.536 178.679,314.049 183.600 C 313.346 190.707,311.161 197.145,306.549 205.700 C 306.223 206.305,305.786 206.800,305.578 206.800 C 305.370 206.800,305.200 207.039,305.200 207.330 C 305.200 207.903,302.895 211.078,299.517 215.158 C 296.056 219.339,289.725 225.347,286.407 227.600 C 285.921 227.930,283.965 229.331,282.062 230.713 C 280.158 232.095,277.700 233.678,276.600 234.230 C 275.500 234.783,273.880 235.669,273.000 236.199 C 271.069 237.361,270.873 237.464,269.600 237.987 C 269.050 238.213,268.330 238.548,268.000 238.731 C 265.812 239.944,263.967 240.802,263.521 240.814 C 263.234 240.821,262.280 241.175,261.400 241.600 C 260.520 242.025,259.530 242.385,259.200 242.400 C 258.870 242.415,257.880 242.775,257.000 243.200 C 256.120 243.625,255.040 243.980,254.600 243.989 C 254.160 243.998,253.281 244.276,252.647 244.606 C 252.013 244.937,250.753 245.311,249.847 245.438 C 248.941 245.564,247.537 245.916,246.727 246.220 C 245.916 246.524,244.026 246.896,242.527 247.048 C 241.027 247.199,239.440 247.545,239.000 247.817 C 238.560 248.088,237.030 248.413,235.600 248.539 C 231.597 248.891,226.076 249.533,223.200 249.980 C 218.709 250.678,110.341 250.538,109.376 249.832 C 108.427 249.138,108.121 107.900,109.066 106.762 C 109.648 106.060,222.185 106.090,225.077 106.793 M148.480 139.280 C 147.660 140.100,147.806 165.040,148.633 165.357 C 148.981 165.491,165.429 165.600,185.184 165.600 C 216.206 165.600,221.298 165.682,222.538 166.200 C 223.328 166.530,224.425 166.800,224.975 166.800 C 225.526 166.800,227.042 167.342,228.345 168.004 C 240.732 174.298,237.610 190.400,223.524 192.863 C 221.330 193.247,211.614 193.402,184.625 193.485 C 156.293 193.572,148.582 193.702,148.331 194.098 C 147.844 194.865,147.922 219.507,148.414 220.426 C 148.972 221.468,222.531 221.645,225.400 220.612 C 226.280 220.295,228.044 220.027,229.320 220.018 C 230.596 220.008,232.126 219.751,232.720 219.447 C 233.314 219.143,234.790 218.766,236.000 218.609 C 237.210 218.452,238.563 218.095,239.006 217.814 C 239.449 217.534,240.436 217.168,241.200 217.000 C 241.964 216.832,242.951 216.466,243.394 216.187 C 243.837 215.907,244.773 215.559,245.472 215.414 C 246.172 215.268,246.959 214.890,247.221 214.574 C 247.483 214.258,248.012 214.000,248.395 214.000 C 248.778 214.000,249.550 213.640,250.109 213.200 C 250.669 212.760,251.295 212.400,251.502 212.400 C 251.709 212.400,252.293 212.040,252.800 211.600 C 253.307 211.160,253.953 210.800,254.235 210.800 C 256.445 210.800,270.000 196.713,270.000 194.416 C 270.000 194.219,270.235 193.819,270.523 193.529 C 271.131 192.914,272.316 189.709,272.788 187.400 C 272.969 186.520,273.336 184.720,273.604 183.400 C 274.951 176.770,273.014 168.030,268.730 161.400 C 266.656 158.191,260.753 151.600,259.953 151.600 C 259.781 151.600,259.137 151.133,258.521 150.561 C 257.184 149.322,254.096 147.200,253.629 147.200 C 253.447 147.200,253.074 146.931,252.801 146.602 C 252.528 146.272,251.111 145.444,249.652 144.760 C 248.194 144.077,246.522 143.266,245.938 142.959 C 245.354 142.651,244.634 142.399,244.338 142.398 C 244.042 142.396,243.281 142.124,242.647 141.794 C 242.013 141.463,240.753 141.080,239.847 140.941 C 238.941 140.803,237.840 140.494,237.400 140.255 C 235.054 138.978,230.279 138.834,189.580 138.817 C 158.501 138.804,148.847 138.913,148.480 139.280 " stroke="none" fill="#c7b9a1" fill-rule="evenodd"></path><path id="path1" d="M0.000 200.000 L 0.000 400.000 200.000 400.000 L 400.000 400.000 400.000 200.000 L 400.000 0.000 200.000 0.000 L 0.000 0.000 0.000 200.000 M235.400 78.455 C 236.202 78.879,238.191 79.169,241.400 79.330 C 244.040 79.462,247.244 79.847,248.520 80.185 C 249.795 80.523,251.559 80.800,252.439 80.800 C 253.320 80.800,254.534 81.055,255.137 81.368 C 255.741 81.680,257.577 82.061,259.218 82.214 C 260.858 82.368,262.740 82.731,263.400 83.020 C 264.702 83.592,267.905 84.491,271.983 85.429 C 273.404 85.755,274.674 86.196,274.805 86.409 C 274.937 86.621,275.887 86.953,276.918 87.145 C 277.949 87.338,279.019 87.678,279.296 87.901 C 279.573 88.125,280.430 88.442,281.200 88.607 C 281.970 88.772,283.227 89.243,283.994 89.653 C 284.761 90.064,285.666 90.400,286.005 90.400 C 286.344 90.400,286.977 90.643,287.411 90.940 C 287.845 91.237,288.740 91.606,289.400 91.759 C 290.060 91.912,291.860 92.630,293.400 93.355 C 294.940 94.081,296.650 94.886,297.200 95.145 C 297.750 95.404,298.920 96.054,299.800 96.589 C 300.680 97.124,301.670 97.673,302.000 97.810 C 302.330 97.946,302.870 98.228,303.200 98.437 C 303.530 98.645,304.385 99.085,305.100 99.413 C 305.815 99.742,306.400 100.194,306.400 100.418 C 306.400 100.642,306.715 100.946,307.100 101.093 C 307.748 101.341,310.071 102.776,311.000 103.501 C 311.220 103.673,312.390 104.466,313.600 105.265 C 314.810 106.063,316.304 107.185,316.921 107.758 C 317.537 108.331,318.141 108.800,318.263 108.800 C 318.385 108.800,319.050 109.248,319.742 109.796 C 320.434 110.345,321.417 111.110,321.926 111.496 C 322.436 111.883,323.966 113.234,325.326 114.497 C 326.687 115.760,327.935 116.795,328.100 116.797 C 328.265 116.799,328.400 116.996,328.400 117.236 C 328.400 117.475,329.165 118.436,330.100 119.371 C 333.475 122.746,338.000 128.114,338.000 128.743 C 338.000 128.994,338.150 129.200,338.333 129.200 C 338.740 129.200,341.200 132.938,341.200 133.556 C 341.200 133.800,341.348 134.000,341.529 134.000 C 341.962 134.000,344.000 137.124,344.000 137.787 C 344.000 138.070,344.243 138.504,344.541 138.751 C 344.838 138.998,345.656 140.505,346.357 142.100 C 347.059 143.695,347.896 145.510,348.217 146.132 C 348.538 146.755,348.806 147.475,348.814 147.732 C 348.821 147.990,349.175 148.920,349.600 149.800 C 350.025 150.680,350.379 151.963,350.386 152.651 C 350.394 153.339,350.659 154.117,350.975 154.379 C 351.291 154.641,351.662 155.878,351.799 157.128 C 351.937 158.378,352.295 160.030,352.596 160.800 C 354.173 164.841,354.168 187.700,352.588 191.400 C 352.307 192.060,351.977 193.418,351.857 194.418 C 351.736 195.418,351.360 196.768,351.021 197.418 C 350.682 198.068,350.398 198.960,350.389 199.400 C 350.380 199.840,350.025 200.920,349.600 201.800 C 349.175 202.680,348.821 203.614,348.814 203.876 C 348.806 204.138,348.080 205.882,347.200 207.752 C 346.320 209.622,345.600 211.329,345.600 211.547 C 345.600 211.765,345.361 212.182,345.068 212.475 C 344.570 212.973,343.938 214.032,342.728 216.400 C 342.447 216.950,341.988 217.544,341.708 217.720 C 341.429 217.896,341.200 218.286,341.200 218.586 C 341.200 219.094,340.395 220.207,338.700 222.042 C 338.315 222.459,338.000 222.909,338.000 223.042 C 338.000 223.175,337.542 223.850,336.983 224.542 C 336.424 225.234,335.659 226.208,335.283 226.706 C 333.190 229.483,324.255 238.787,322.120 240.412 C 320.977 241.283,319.022 242.989,317.778 244.204 C 314.808 247.104,310.050 250.393,306.700 251.863 C 305.875 252.225,305.200 252.674,305.200 252.861 C 305.200 253.047,304.943 253.200,304.629 253.200 C 304.314 253.200,303.795 253.462,303.475 253.782 C 302.760 254.497,300.547 255.849,299.200 256.395 C 298.650 256.617,297.930 256.983,297.600 257.208 C 297.270 257.432,296.427 257.880,295.727 258.202 C 295.027 258.524,294.354 258.951,294.231 259.150 C 294.108 259.349,293.511 259.635,292.904 259.787 C 292.297 259.938,291.530 260.297,291.200 260.584 C 290.870 260.871,290.150 261.238,289.600 261.400 C 289.050 261.562,288.330 261.919,288.000 262.194 C 287.670 262.468,286.883 262.816,286.252 262.966 C 285.620 263.116,284.842 263.501,284.523 263.820 C 284.204 264.139,283.444 264.400,282.833 264.400 C 282.223 264.400,281.398 264.760,281.000 265.200 C 280.602 265.640,279.896 266.000,279.432 266.000 C 278.968 266.000,277.916 266.360,277.096 266.800 C 276.275 267.240,275.287 267.606,274.901 267.614 C 274.516 267.621,273.480 267.975,272.600 268.400 C 271.720 268.825,270.586 269.179,270.080 269.186 C 269.574 269.194,268.672 269.453,268.075 269.761 C 267.478 270.070,266.092 270.455,264.995 270.616 C 263.898 270.778,262.645 271.155,262.211 271.455 C 261.777 271.755,260.967 272.002,260.411 272.005 C 259.855 272.007,258.410 272.297,257.200 272.649 C 255.990 273.001,253.650 273.530,252.000 273.826 C 250.350 274.122,248.100 274.544,247.000 274.763 C 245.900 274.983,243.650 275.356,242.000 275.593 C 240.350 275.830,237.740 276.207,236.200 276.431 C 234.660 276.654,231.150 276.992,228.400 277.181 C 225.650 277.370,222.590 277.714,221.600 277.945 C 217.761 278.841,69.299 278.532,68.814 277.626 C 68.011 276.126,68.261 78.996,69.067 78.190 C 70.065 77.192,233.503 77.452,235.400 78.455 M109.795 108.114 C 109.677 108.601,109.630 140.500,109.691 179.000 L 109.800 249.000 166.124 249.101 C 207.912 249.177,222.669 249.084,223.305 248.744 C 223.777 248.491,226.151 248.153,228.582 247.993 C 233.404 247.674,240.698 246.601,242.600 245.930 C 243.260 245.697,245.060 245.278,246.600 245.000 C 248.140 244.722,250.188 244.203,251.150 243.847 C 252.113 243.491,253.193 243.199,253.550 243.198 C 253.908 243.196,254.683 242.943,255.273 242.635 C 255.863 242.327,256.943 241.948,257.673 241.792 C 258.403 241.635,259.182 241.362,259.405 241.183 C 259.628 241.005,260.658 240.646,261.693 240.385 C 262.729 240.124,263.783 239.661,264.037 239.356 C 264.290 239.050,264.663 238.800,264.866 238.800 C 265.337 238.800,269.303 236.848,273.400 234.599 C 275.160 233.633,276.967 232.672,277.416 232.463 C 277.865 232.254,278.473 231.795,278.765 231.442 C 279.058 231.089,279.449 230.800,279.634 230.800 C 279.954 230.800,285.368 227.216,287.723 225.445 C 288.341 224.980,289.848 223.570,291.071 222.312 C 292.295 221.053,293.634 219.916,294.048 219.785 C 294.462 219.654,294.800 219.352,294.800 219.115 C 294.800 218.877,295.638 217.764,296.661 216.641 C 297.685 215.519,299.125 213.941,299.861 213.136 C 300.598 212.330,301.200 211.535,301.200 211.369 C 301.200 211.203,301.469 210.782,301.798 210.434 C 303.083 209.072,304.400 207.264,304.400 206.862 C 304.400 206.630,304.625 206.296,304.900 206.120 C 305.731 205.588,308.341 200.587,309.187 197.906 C 309.446 197.084,309.825 196.308,310.029 196.182 C 310.233 196.056,310.400 195.604,310.400 195.178 C 310.400 194.752,310.737 193.367,311.150 192.102 C 314.199 182.745,313.469 164.767,309.747 157.538 C 309.446 156.954,309.194 156.234,309.187 155.938 C 309.181 155.642,308.732 154.500,308.191 153.400 C 307.650 152.300,307.206 151.194,307.204 150.943 C 307.202 150.691,306.947 150.388,306.638 150.270 C 306.328 150.151,305.957 149.517,305.813 148.860 C 305.669 148.204,305.292 147.567,304.976 147.446 C 304.659 147.324,304.400 147.027,304.400 146.786 C 304.400 146.382,301.622 142.665,300.201 141.166 C 299.870 140.818,299.600 140.408,299.600 140.256 C 299.600 139.882,297.472 137.559,294.835 135.055 C 293.645 133.925,292.025 132.363,291.235 131.585 C 288.879 129.263,284.362 125.818,281.800 124.390 C 280.480 123.655,279.310 122.941,279.200 122.804 C 279.090 122.667,278.415 122.318,277.700 122.029 C 276.985 121.740,276.400 121.345,276.400 121.151 C 276.400 120.958,276.085 120.799,275.700 120.799 C 275.315 120.798,274.411 120.438,273.690 119.999 C 272.970 119.559,272.139 119.200,271.844 119.200 C 271.549 119.200,270.850 118.840,270.291 118.400 C 269.731 117.960,268.942 117.599,268.537 117.597 C 268.132 117.596,267.260 117.237,266.600 116.800 C 265.940 116.363,265.040 116.003,264.600 116.000 C 264.160 115.997,263.297 115.733,262.683 115.412 C 262.069 115.092,260.899 114.710,260.083 114.564 C 259.267 114.418,258.309 114.045,257.953 113.736 C 257.598 113.426,256.164 112.989,254.767 112.764 C 253.370 112.539,252.033 112.193,251.795 111.996 C 251.557 111.798,250.298 111.470,248.997 111.266 C 247.696 111.062,246.564 110.693,246.482 110.447 C 246.400 110.201,245.493 109.990,244.467 109.978 C 242.537 109.956,237.697 109.200,234.200 108.376 C 232.727 108.029,216.223 107.863,171.600 107.745 C 138.270 107.658,110.777 107.505,110.504 107.407 C 110.231 107.309,109.912 107.627,109.795 108.114 M232.449 137.874 C 232.763 138.135,234.005 138.475,235.210 138.629 C 236.414 138.783,237.850 139.133,238.400 139.407 C 238.950 139.681,240.210 140.034,241.200 140.191 C 242.190 140.348,243.363 140.706,243.806 140.986 C 244.249 141.266,245.239 141.632,246.006 141.800 C 246.773 141.967,247.829 142.441,248.354 142.852 C 248.879 143.263,249.546 143.600,249.836 143.600 C 250.345 143.600,253.164 145.350,253.591 145.932 C 253.706 146.088,254.250 146.445,254.800 146.724 C 256.608 147.642,257.380 148.189,259.000 149.702 C 259.880 150.524,260.796 151.197,261.037 151.198 C 261.829 151.202,269.200 159.367,269.200 160.241 C 269.200 160.502,269.453 160.812,269.762 160.930 C 270.072 161.049,270.449 161.710,270.600 162.400 C 270.751 163.090,271.115 163.746,271.408 163.858 C 271.701 163.971,272.057 164.754,272.200 165.600 C 272.343 166.446,272.691 167.226,272.974 167.335 C 273.257 167.443,273.609 168.402,273.757 169.466 C 273.905 170.530,274.290 171.749,274.613 172.176 C 275.473 173.314,275.459 184.252,274.596 185.484 C 274.264 185.959,273.880 187.214,273.742 188.273 C 273.605 189.333,273.249 190.482,272.951 190.826 C 272.653 191.171,272.295 192.026,272.155 192.726 C 272.015 193.427,271.745 194.000,271.555 194.000 C 271.366 194.000,270.934 194.585,270.595 195.300 C 269.541 197.523,268.882 198.522,268.229 198.888 C 267.883 199.081,267.600 199.515,267.600 199.852 C 267.600 200.618,258.759 209.432,257.630 209.790 C 257.174 209.935,256.800 210.226,256.800 210.437 C 256.800 210.647,256.360 210.987,255.822 211.192 C 255.284 211.396,253.944 212.196,252.845 212.968 C 251.746 213.741,250.393 214.487,249.840 214.626 C 249.286 214.765,248.623 215.131,248.367 215.439 C 248.111 215.748,247.602 216.000,247.236 216.000 C 246.869 216.000,245.863 216.360,245.000 216.800 C 244.137 217.240,243.244 217.606,243.015 217.614 C 242.787 217.621,241.880 217.975,241.000 218.400 C 240.120 218.825,238.784 219.179,238.031 219.186 C 237.279 219.194,236.379 219.452,236.031 219.760 C 235.684 220.067,233.690 220.536,231.600 220.800 C 229.510 221.065,227.350 221.488,226.800 221.741 C 225.262 222.447,149.369 222.590,148.000 221.889 L 147.000 221.377 146.895 207.572 C 146.808 196.102,146.887 193.634,147.363 192.983 C 147.924 192.216,148.697 192.199,184.468 192.130 C 221.923 192.059,225.606 191.957,226.424 190.971 C 226.685 190.657,227.207 190.400,227.586 190.400 C 228.819 190.400,233.998 185.653,234.003 184.519 C 234.004 184.124,234.363 183.260,234.800 182.600 C 235.880 180.969,235.880 177.883,234.800 176.509 C 234.360 175.950,234.000 175.220,234.000 174.887 C 234.000 174.009,231.261 170.804,230.149 170.381 C 229.627 170.182,229.200 169.835,229.200 169.610 C 229.200 169.384,228.864 169.200,228.454 169.200 C 228.044 169.200,227.276 168.860,226.748 168.445 C 225.179 167.211,222.990 167.128,184.761 166.858 C 154.438 166.645,148.008 166.505,147.456 166.047 C 146.854 165.547,146.800 164.174,146.895 151.858 L 147.000 138.223 148.000 137.714 C 149.402 136.999,231.583 137.155,232.449 137.874 " stroke="none" fill="#0c0c05" fill-rule="evenodd"></path><path id="path2" d="M69.067 78.190 C 68.261 78.996,68.011 276.126,68.814 277.626 C 69.299 278.532,217.761 278.841,221.600 277.945 C 222.590 277.714,225.650 277.370,228.400 277.181 C 231.150 276.992,234.660 276.654,236.200 276.431 C 237.740 276.207,240.350 275.830,242.000 275.593 C 243.650 275.356,245.900 274.983,247.000 274.763 C 248.100 274.544,250.350 274.122,252.000 273.826 C 253.650 273.530,255.990 273.001,257.200 272.649 C 258.410 272.297,259.855 272.007,260.411 272.005 C 260.967 272.002,261.777 271.755,262.211 271.455 C 262.645 271.155,263.898 270.778,264.995 270.616 C 266.092 270.455,267.478 270.070,268.075 269.761 C 268.672 269.453,269.574 269.194,270.080 269.186 C 270.586 269.179,271.720 268.825,272.600 268.400 C 273.480 267.975,274.516 267.621,274.901 267.614 C 275.287 267.606,276.275 267.240,277.096 266.800 C 277.916 266.360,278.968 266.000,279.432 266.000 C 279.896 266.000,280.602 265.640,281.000 265.200 C 281.398 264.760,282.223 264.400,282.833 264.400 C 283.444 264.400,284.204 264.139,284.523 263.820 C 284.842 263.501,285.620 263.116,286.252 262.966 C 286.883 262.816,287.670 262.468,288.000 262.194 C 288.330 261.919,289.050 261.562,289.600 261.400 C 290.150 261.238,290.870 260.871,291.200 260.584 C 291.530 260.297,292.297 259.938,292.904 259.787 C 293.511 259.635,294.108 259.349,294.231 259.150 C 294.354 258.951,295.027 258.524,295.727 258.202 C 296.427 257.880,297.270 257.432,297.600 257.208 C 297.930 256.983,298.650 256.617,299.200 256.395 C 300.547 255.849,302.760 254.497,303.475 253.782 C 303.795 253.462,304.314 253.200,304.629 253.200 C 304.943 253.200,305.200 253.047,305.200 252.861 C 305.200 252.674,305.875 252.225,306.700 251.863 C 310.050 250.393,314.808 247.104,317.778 244.204 C 319.022 242.989,320.977 241.283,322.120 240.412 C 324.255 238.787,333.190 229.483,335.283 226.706 C 335.659 226.208,336.424 225.234,336.983 224.542 C 337.542 223.850,338.000 223.175,338.000 223.042 C 338.000 222.909,338.315 222.459,338.700 222.042 C 340.395 220.207,341.200 219.094,341.200 218.586 C 341.200 218.286,341.429 217.896,341.708 217.720 C 341.988 217.544,342.447 216.950,342.728 216.400 C 343.938 214.032,344.570 212.973,345.068 212.475 C 345.361 212.182,345.600 211.765,345.600 211.547 C 345.600 211.329,346.320 209.622,347.200 207.752 C 348.080 205.882,348.806 204.138,348.814 203.876 C 348.821 203.614,349.175 202.680,349.600 201.800 C 350.025 200.920,350.380 199.840,350.389 199.400 C 350.398 198.960,350.682 198.068,351.021 197.418 C 351.360 196.768,351.736 195.418,351.857 194.418 C 351.977 193.418,352.307 192.060,352.588 191.400 C 354.168 187.700,354.173 164.841,352.596 160.800 C 352.295 160.030,351.937 158.378,351.799 157.128 C 351.662 155.878,351.291 154.641,350.975 154.379 C 350.659 154.117,350.394 153.339,350.386 152.651 C 350.379 151.963,350.025 150.680,349.600 149.800 C 349.175 148.920,348.821 147.990,348.814 147.732 C 348.806 147.475,348.538 146.755,348.217 146.132 C 347.896 145.510,347.059 143.695,346.357 142.100 C 345.656 140.505,344.838 138.998,344.541 138.751 C 344.243 138.504,344.000 138.070,344.000 137.787 C 344.000 137.124,341.962 134.000,341.529 134.000 C 341.348 134.000,341.200 133.800,341.200 133.556 C 341.200 132.938,338.740 129.200,338.333 129.200 C 338.150 129.200,338.000 128.994,338.000 128.743 C 338.000 128.114,333.475 122.746,330.100 119.371 C 329.165 118.436,328.400 117.475,328.400 117.236 C 328.400 116.996,328.265 116.799,328.100 116.797 C 327.935 116.795,326.687 115.760,325.326 114.497 C 323.966 113.234,322.436 111.883,321.926 111.496 C 321.417 111.110,320.434 110.345,319.742 109.796 C 319.050 109.248,318.385 108.800,318.263 108.800 C 318.141 108.800,317.537 108.331,316.921 107.758 C 316.304 107.185,314.810 106.063,313.600 105.265 C 312.390 104.466,311.220 103.673,311.000 103.501 C 310.071 102.776,307.748 101.341,307.100 101.093 C 306.715 100.946,306.400 100.642,306.400 100.418 C 306.400 100.194,305.815 99.742,305.100 99.413 C 304.385 99.085,303.530 98.645,303.200 98.437 C 302.870 98.228,302.330 97.946,302.000 97.810 C 301.670 97.673,300.680 97.124,299.800 96.589 C 298.920 96.054,297.750 95.404,297.200 95.145 C 296.650 94.886,294.940 94.081,293.400 93.355 C 291.860 92.630,290.060 91.912,289.400 91.759 C 288.740 91.606,287.845 91.237,287.411 90.940 C 286.977 90.643,286.344 90.400,286.005 90.400 C 285.666 90.400,284.761 90.064,283.994 89.653 C 283.227 89.243,281.970 88.772,281.200 88.607 C 280.430 88.442,279.573 88.125,279.296 87.901 C 279.019 87.678,277.949 87.338,276.918 87.145 C 275.887 86.953,274.937 86.621,274.805 86.409 C 274.674 86.196,273.404 85.755,271.983 85.429 C 267.905 84.491,264.702 83.592,263.400 83.020 C 262.740 82.731,260.858 82.368,259.218 82.214 C 257.577 82.061,255.741 81.680,255.137 81.368 C 254.534 81.055,253.320 80.800,252.439 80.800 C 251.559 80.800,249.795 80.523,248.520 80.185 C 247.244 79.847,244.040 79.462,241.400 79.330 C 238.191 79.169,236.202 78.879,235.400 78.455 C 233.503 77.452,70.065 77.192,69.067 78.190 M234.600 79.122 C 235.480 79.374,237.640 79.586,239.400 79.593 C 241.439 79.601,243.016 79.822,243.746 80.202 C 244.376 80.531,245.636 80.804,246.546 80.808 C 248.172 80.816,252.663 81.529,256.600 82.405 C 257.700 82.649,260.310 83.216,262.400 83.665 C 264.490 84.114,266.710 84.733,267.332 85.040 C 267.955 85.348,268.899 85.600,269.430 85.600 C 270.321 85.600,281.688 89.239,283.154 89.993 C 283.509 90.176,285.330 90.902,287.200 91.606 C 291.169 93.101,294.911 94.759,298.000 96.391 C 299.210 97.031,301.460 98.216,303.000 99.024 C 304.540 99.833,305.890 100.613,306.000 100.757 C 306.110 100.901,308.081 102.274,310.380 103.808 C 321.541 111.253,331.176 120.078,337.000 128.190 C 340.750 133.413,341.798 134.980,343.291 137.600 C 346.022 142.394,350.000 151.699,350.000 153.294 C 350.000 153.667,350.251 154.564,350.558 155.286 C 353.491 162.187,354.163 185.459,351.622 192.142 C 351.390 192.753,351.194 193.825,351.186 194.526 C 351.178 195.227,350.914 196.250,350.600 196.800 C 350.286 197.350,350.016 198.160,350.001 198.600 C 349.985 199.040,349.625 200.120,349.200 201.000 C 348.775 201.880,348.421 202.881,348.414 203.224 C 348.406 203.566,348.136 204.196,347.813 204.624 C 347.490 205.051,347.220 205.634,347.213 205.919 C 347.082 211.238,330.412 233.108,320.200 241.356 C 318.660 242.600,316.230 244.606,314.800 245.815 C 313.370 247.023,310.580 248.940,308.600 250.075 C 306.620 251.210,304.192 252.693,303.204 253.369 C 300.394 255.295,289.626 260.800,284.400 262.982 C 282.970 263.579,281.080 264.393,280.200 264.791 C 277.192 266.151,271.219 268.201,266.200 269.598 C 264.440 270.087,262.280 270.728,261.400 271.021 C 260.520 271.314,258.900 271.678,257.800 271.831 C 256.700 271.984,255.350 272.285,254.800 272.499 C 253.374 273.055,246.350 274.301,239.729 275.171 C 236.611 275.581,233.875 276.030,233.649 276.169 C 233.424 276.309,230.396 276.604,226.920 276.825 C 223.444 277.046,219.160 277.388,217.400 277.585 C 211.532 278.242,70.684 278.096,69.776 277.432 C 69.012 276.873,68.998 275.345,68.886 178.932 C 68.766 75.494,68.729 78.523,70.113 78.326 C 72.890 77.931,233.151 78.707,234.600 79.122 M109.600 106.733 C 108.888 106.971,109.064 249.462,109.776 249.735 C 110.882 250.160,220.914 249.994,222.800 249.565 C 223.790 249.340,226.310 248.998,228.400 248.804 C 234.944 248.196,238.228 247.720,239.103 247.252 C 239.567 247.003,240.515 246.800,241.208 246.800 C 241.902 246.800,243.759 246.457,245.335 246.039 C 246.911 245.620,248.965 245.080,249.900 244.839 C 250.835 244.597,252.365 244.201,253.300 243.957 C 254.235 243.714,255.540 243.283,256.200 243.001 C 256.860 242.718,258.570 242.090,260.000 241.605 C 276.304 236.071,296.292 221.165,303.863 208.897 C 304.235 208.293,305.179 206.810,305.961 205.600 C 309.893 199.514,312.935 190.714,313.635 183.400 C 314.071 178.844,313.658 168.535,312.966 166.692 C 312.655 165.862,312.400 164.686,312.400 164.078 C 312.400 161.467,307.323 149.198,305.260 146.822 C 304.963 146.480,303.613 144.667,302.260 142.792 C 298.775 137.964,298.484 137.638,293.373 132.793 C 287.114 126.861,280.566 122.411,273.200 119.086 C 271.770 118.440,269.483 117.392,268.117 116.756 C 266.751 116.120,265.429 115.600,265.178 115.600 C 264.928 115.600,264.246 115.348,263.662 115.039 C 263.078 114.730,261.700 114.202,260.600 113.864 C 259.500 113.527,258.060 113.069,257.400 112.846 C 253.843 111.646,250.658 110.800,249.692 110.798 C 249.091 110.796,248.084 110.526,247.454 110.198 C 246.824 109.869,245.653 109.600,244.852 109.600 C 244.050 109.600,242.766 109.410,241.997 109.178 C 239.778 108.508,232.476 107.607,229.233 107.603 C 227.601 107.601,225.171 107.416,223.833 107.190 C 221.625 106.819,110.675 106.375,109.600 106.733 M171.600 107.745 C 216.223 107.863,232.727 108.029,234.200 108.376 C 237.697 109.200,242.537 109.956,244.467 109.978 C 245.493 109.990,246.400 110.201,246.482 110.447 C 246.564 110.693,247.696 111.062,248.997 111.266 C 250.298 111.470,251.557 111.798,251.795 111.996 C 252.033 112.193,253.370 112.539,254.767 112.764 C 256.164 112.989,257.598 113.426,257.953 113.736 C 258.309 114.045,259.267 114.418,260.083 114.564 C 260.899 114.710,262.069 115.092,262.683 115.412 C 263.297 115.733,264.160 115.997,264.600 116.000 C 265.040 116.003,265.940 116.363,266.600 116.800 C 267.260 117.237,268.132 117.596,268.537 117.597 C 268.942 117.599,269.731 117.960,270.291 118.400 C 270.850 118.840,271.549 119.200,271.844 119.200 C 272.139 119.200,272.970 119.559,273.690 119.999 C 274.411 120.438,275.315 120.798,275.700 120.799 C 276.085 120.799,276.400 120.958,276.400 121.151 C 276.400 121.345,276.985 121.740,277.700 122.029 C 278.415 122.318,279.090 122.667,279.200 122.804 C 279.310 122.941,280.480 123.655,281.800 124.390 C 284.362 125.818,288.879 129.263,291.235 131.585 C 292.025 132.363,293.645 133.925,294.835 135.055 C 297.472 137.559,299.600 139.882,299.600 140.256 C 299.600 140.408,299.870 140.818,300.201 141.166 C 301.622 142.665,304.400 146.382,304.400 146.786 C 304.400 147.027,304.659 147.324,304.976 147.446 C 305.292 147.567,305.669 148.204,305.813 148.860 C 305.957 149.517,306.328 150.151,306.638 150.270 C 306.947 150.388,307.202 150.691,307.204 150.943 C 307.206 151.194,307.650 152.300,308.191 153.400 C 308.732 154.500,309.181 155.642,309.187 155.938 C 309.194 156.234,309.446 156.954,309.747 157.538 C 313.469 164.767,314.199 182.745,311.150 192.102 C 310.737 193.367,310.400 194.752,310.400 195.178 C 310.400 195.604,310.233 196.056,310.029 196.182 C 309.825 196.308,309.446 197.084,309.187 197.906 C 308.341 200.587,305.731 205.588,304.900 206.120 C 304.625 206.296,304.400 206.630,304.400 206.862 C 304.400 207.264,303.083 209.072,301.798 210.434 C 301.469 210.782,301.200 211.203,301.200 211.369 C 301.200 211.535,300.598 212.330,299.861 213.136 C 299.125 213.941,297.685 215.519,296.661 216.641 C 295.638 217.764,294.800 218.877,294.800 219.115 C 294.800 219.352,294.462 219.654,294.048 219.785 C 293.634 219.916,292.295 221.053,291.071 222.312 C 289.848 223.570,288.341 224.980,287.723 225.445 C 285.368 227.216,279.954 230.800,279.634 230.800 C 279.449 230.800,279.058 231.089,278.765 231.442 C 278.473 231.795,277.865 232.254,277.416 232.463 C 276.967 232.672,275.160 233.633,273.400 234.599 C 269.303 236.848,265.337 238.800,264.866 238.800 C 264.663 238.800,264.290 239.050,264.037 239.356 C 263.783 239.661,262.729 240.124,261.693 240.385 C 260.658 240.646,259.628 241.005,259.405 241.183 C 259.182 241.362,258.403 241.635,257.673 241.792 C 256.943 241.948,255.863 242.327,255.273 242.635 C 254.683 242.943,253.908 243.196,253.550 243.198 C 253.193 243.199,252.113 243.491,251.150 243.847 C 250.188 244.203,248.140 244.722,246.600 245.000 C 245.060 245.278,243.260 245.697,242.600 245.930 C 240.698 246.601,233.404 247.674,228.582 247.993 C 226.151 248.153,223.777 248.491,223.305 248.744 C 222.669 249.084,207.912 249.177,166.124 249.101 L 109.800 249.000 109.691 179.000 C 109.581 108.601,109.598 107.080,110.504 107.407 C 110.777 107.505,138.270 107.658,171.600 107.745 M148.000 137.714 L 147.000 138.223 146.895 151.858 C 146.800 164.174,146.854 165.547,147.456 166.047 C 148.008 166.505,154.438 166.645,184.761 166.858 C 222.990 167.128,225.179 167.211,226.748 168.445 C 227.276 168.860,228.044 169.200,228.454 169.200 C 228.864 169.200,229.200 169.384,229.200 169.610 C 229.200 169.835,229.627 170.182,230.149 170.381 C 231.261 170.804,234.000 174.009,234.000 174.887 C 234.000 175.220,234.360 175.950,234.800 176.509 C 235.880 177.883,235.880 180.969,234.800 182.600 C 234.363 183.260,234.004 184.124,234.003 184.519 C 233.998 185.653,228.819 190.400,227.586 190.400 C 227.207 190.400,226.685 190.657,226.424 190.971 C 225.606 191.957,221.923 192.059,184.468 192.130 C 148.697 192.199,147.924 192.216,147.363 192.983 C 146.887 193.634,146.808 196.102,146.895 207.572 L 147.000 221.377 148.000 221.889 C 149.369 222.590,225.262 222.447,226.800 221.741 C 227.350 221.488,229.510 221.065,231.600 220.800 C 233.690 220.536,235.684 220.067,236.031 219.760 C 236.379 219.452,237.279 219.194,238.031 219.186 C 238.784 219.179,240.120 218.825,241.000 218.400 C 241.880 217.975,242.787 217.621,243.015 217.614 C 243.244 217.606,244.137 217.240,245.000 216.800 C 245.863 216.360,246.869 216.000,247.236 216.000 C 247.602 216.000,248.111 215.748,248.367 215.439 C 248.623 215.131,249.286 214.765,249.840 214.626 C 250.393 214.487,251.746 213.741,252.845 212.968 C 253.944 212.196,255.284 211.396,255.822 211.192 C 256.360 210.987,256.800 210.647,256.800 210.437 C 256.800 210.226,257.174 209.935,257.630 209.790 C 258.759 209.432,267.600 200.618,267.600 199.852 C 267.600 199.515,267.883 199.081,268.229 198.888 C 268.882 198.522,269.541 197.523,270.595 195.300 C 270.934 194.585,271.366 194.000,271.555 194.000 C 271.745 194.000,272.015 193.427,272.155 192.726 C 272.295 192.026,272.653 191.171,272.951 190.826 C 273.249 190.482,273.605 189.333,273.742 188.273 C 273.880 187.214,274.264 185.959,274.596 185.484 C 275.459 184.252,275.473 173.314,274.613 172.176 C 274.290 171.749,273.905 170.530,273.757 169.466 C 273.609 168.402,273.257 167.443,272.974 167.335 C 272.691 167.226,272.343 166.446,272.200 165.600 C 272.057 164.754,271.701 163.971,271.408 163.858 C 271.115 163.746,270.751 163.090,270.600 162.400 C 270.449 161.710,270.072 161.049,269.762 160.930 C 269.453 160.812,269.200 160.502,269.200 160.241 C 269.200 159.367,261.829 151.202,261.037 151.198 C 260.796 151.197,259.880 150.524,259.000 149.702 C 257.380 148.189,256.608 147.642,254.800 146.724 C 254.250 146.445,253.706 146.088,253.591 145.932 C 253.164 145.350,250.345 143.600,249.836 143.600 C 249.546 143.600,248.879 143.263,248.354 142.852 C 247.829 142.441,246.773 141.967,246.006 141.800 C 245.239 141.632,244.249 141.266,243.806 140.986 C 243.363 140.706,242.190 140.348,241.200 140.191 C 240.210 140.034,238.950 139.681,238.400 139.407 C 237.850 139.133,236.414 138.783,235.210 138.629 C 234.005 138.475,232.763 138.135,232.449 137.874 C 231.583 137.155,149.402 136.999,148.000 137.714 M231.203 138.410 C 231.971 138.636,233.590 138.976,234.800 139.167 C 236.010 139.357,237.540 139.703,238.200 139.936 C 238.860 140.168,240.930 140.843,242.800 141.435 C 247.983 143.077,255.094 146.912,258.191 149.738 C 258.636 150.144,259.720 150.982,260.600 151.600 C 263.273 153.478,268.065 158.975,269.685 162.021 C 270.209 163.007,270.806 164.080,271.013 164.407 C 271.678 165.457,273.196 169.379,273.198 170.051 C 273.199 170.409,273.470 171.349,273.800 172.138 C 274.639 174.147,274.639 183.330,273.800 185.338 C 273.470 186.128,273.199 187.185,273.198 187.687 C 273.196 188.737,271.516 193.044,270.848 193.712 C 270.602 193.958,270.400 194.289,270.400 194.446 C 270.400 196.994,256.726 211.200,254.274 211.200 C 254.119 211.200,253.095 211.830,252.000 212.600 C 250.905 213.370,249.905 214.000,249.779 214.000 C 249.578 214.000,247.890 214.730,243.800 216.587 C 242.635 217.116,239.708 218.080,235.200 219.420 C 233.990 219.779,231.830 220.161,230.400 220.269 C 228.970 220.376,227.121 220.720,226.292 221.032 C 224.568 221.681,149.077 221.890,148.065 221.248 C 147.455 220.862,147.307 194.853,147.908 193.779 C 148.186 193.282,153.308 193.178,184.016 193.045 C 222.128 192.881,224.393 192.773,228.008 190.960 C 230.352 189.783,234.398 185.915,234.403 184.846 C 234.404 184.491,234.763 183.660,235.200 183.000 C 238.505 178.010,231.121 167.257,224.342 167.186 C 223.604 167.178,222.550 166.914,222.000 166.600 C 221.154 166.116,215.420 166.025,184.800 166.008 C 164.860 165.997,148.352 165.831,148.048 165.638 C 147.015 164.984,146.972 139.828,148.002 138.798 C 148.920 137.880,228.139 137.511,231.203 138.410 " stroke="none" fill="#686258" fill-rule="evenodd"></path><path id="path3" d="M69.976 78.487 C 69.549 78.645,69.203 79.005,69.206 79.287 C 69.211 79.697,69.276 79.699,69.532 79.296 C 69.929 78.670,215.177 78.564,222.754 79.184 C 229.403 79.728,238.678 79.960,236.400 79.526 C 235.410 79.337,233.160 79.071,231.400 78.935 C 226.780 78.577,70.901 78.145,69.976 78.487 M243.346 80.563 C 243.995 80.924,245.295 81.176,246.346 81.144 L 248.200 81.087 246.200 80.789 C 245.100 80.625,243.750 80.363,243.200 80.208 C 242.292 79.952,242.306 79.985,243.346 80.563 M68.914 82.200 C 68.917 83.300,68.995 83.703,69.087 83.095 C 69.179 82.486,69.177 81.586,69.082 81.095 C 68.987 80.603,68.911 81.100,68.914 82.200 M249.800 81.585 C 250.460 81.761,251.664 81.927,252.476 81.953 C 253.288 81.979,254.064 82.180,254.200 82.400 C 254.336 82.620,254.932 82.787,255.524 82.772 C 257.440 82.722,254.160 81.750,251.200 81.491 C 249.579 81.350,249.052 81.385,249.800 81.585 M258.200 83.191 C 259.080 83.351,260.307 83.689,260.926 83.941 C 261.545 84.193,262.535 84.379,263.126 84.354 C 264.059 84.314,264.017 84.269,262.800 84.009 C 262.030 83.845,260.893 83.505,260.274 83.255 C 259.655 83.005,258.575 82.823,257.874 82.850 C 256.678 82.897,256.698 82.918,258.200 83.191 M267.149 85.300 C 267.488 85.732,268.177 85.977,268.949 85.940 L 270.200 85.880 269.000 85.705 C 268.340 85.608,267.530 85.320,267.200 85.065 C 266.678 84.660,266.671 84.691,267.149 85.300 M272.344 86.771 C 273.303 87.227,274.383 87.592,274.744 87.582 C 275.105 87.573,274.680 87.291,273.800 86.956 C 271.212 85.972,270.464 85.876,272.344 86.771 M68.920 88.800 C 68.920 90.010,68.995 90.505,69.087 89.900 C 69.178 89.295,69.178 88.305,69.087 87.700 C 68.995 87.095,68.920 87.590,68.920 88.800 M276.000 87.867 C 276.330 87.980,277.167 88.326,277.860 88.636 C 278.554 88.946,279.364 89.196,279.660 89.191 C 279.957 89.186,279.415 88.826,278.456 88.391 C 277.497 87.956,276.417 87.614,276.056 87.632 C 275.515 87.658,275.506 87.699,276.000 87.867 M282.576 90.178 C 283.004 90.520,283.634 90.786,283.976 90.768 C 284.515 90.741,284.518 90.707,284.000 90.514 C 283.670 90.392,283.040 90.126,282.600 89.924 C 281.813 89.562,281.812 89.566,282.576 90.178 M286.576 91.778 C 287.004 92.120,287.634 92.386,287.976 92.368 C 288.515 92.341,288.518 92.307,288.000 92.114 C 287.670 91.992,287.040 91.726,286.600 91.524 C 285.813 91.162,285.812 91.166,286.576 91.778 M289.600 92.966 C 290.150 93.260,291.050 93.612,291.600 93.749 C 292.150 93.886,291.880 93.652,291.000 93.229 C 289.190 92.358,288.068 92.148,289.600 92.966 M297.144 96.376 C 297.664 96.829,298.279 97.200,298.511 97.200 C 299.003 97.200,298.979 97.180,297.400 96.255 L 296.200 95.553 297.144 96.376 M302.200 99.200 C 302.860 99.637,303.580 99.995,303.800 99.995 C 304.020 99.995,303.660 99.637,303.000 99.200 C 302.340 98.763,301.620 98.405,301.400 98.405 C 301.180 98.405,301.540 98.763,302.200 99.200 M309.391 103.820 C 310.218 104.381,310.983 104.750,311.092 104.641 C 311.312 104.422,308.808 102.804,308.244 102.801 C 308.048 102.801,308.565 103.259,309.391 103.820 M311.787 105.179 C 312.003 105.529,314.611 107.384,316.000 108.175 C 316.836 108.652,316.185 108.043,313.959 106.268 C 312.167 104.839,311.312 104.410,311.787 105.179 M109.066 106.761 C 108.733 107.162,108.594 111.103,108.579 120.561 L 108.558 133.800 108.779 120.519 C 108.914 112.420,109.156 107.114,109.400 106.919 C 109.783 106.614,220.904 106.986,229.600 107.322 L 233.800 107.484 229.600 107.117 C 220.290 106.303,109.718 105.976,109.066 106.761 M234.400 107.814 C 234.730 107.909,236.350 108.160,238.000 108.372 C 239.650 108.585,241.450 108.868,242.000 109.001 C 242.786 109.192,242.737 109.121,241.767 108.670 C 241.089 108.354,239.019 107.993,237.167 107.869 C 235.315 107.744,234.070 107.719,234.400 107.814 M316.800 108.918 C 316.800 108.999,317.655 109.660,318.700 110.387 C 320.120 111.376,320.342 111.457,319.577 110.710 C 318.614 109.769,316.800 108.598,316.800 108.918 M245.200 109.611 C 246.190 109.779,247.450 110.036,248.000 110.183 L 249.000 110.450 248.000 109.839 C 247.450 109.503,246.190 109.246,245.200 109.268 L 243.400 109.307 245.200 109.611 M252.200 111.236 C 253.740 111.679,255.540 112.117,256.200 112.210 L 257.400 112.378 256.200 112.058 C 255.540 111.883,254.640 111.551,254.200 111.321 C 253.760 111.091,252.500 110.796,251.400 110.667 C 249.502 110.443,249.542 110.472,252.200 111.236 M258.000 112.746 C 258.974 113.326,260.658 113.747,260.200 113.297 C 259.980 113.080,259.260 112.788,258.600 112.646 C 257.817 112.478,257.608 112.513,258.000 112.746 M322.400 112.853 C 322.400 112.952,323.872 114.466,325.671 116.217 C 327.471 117.968,328.686 119.040,328.371 118.600 C 327.730 117.702,322.400 112.573,322.400 112.853 M262.389 114.294 C 262.932 114.396,263.738 114.731,264.178 115.039 C 264.618 115.348,265.250 115.600,265.583 115.600 C 265.916 115.600,265.516 115.240,264.696 114.800 C 263.875 114.360,262.797 114.025,262.301 114.054 C 261.456 114.106,261.461 114.120,262.389 114.294 M267.600 116.400 C 269.457 117.416,270.158 117.415,268.490 116.399 C 267.770 115.959,266.960 115.608,266.690 115.617 C 266.421 115.626,266.830 115.978,267.600 116.400 M270.800 117.800 C 271.350 118.114,271.980 118.372,272.200 118.372 C 272.420 118.372,272.150 118.114,271.600 117.800 C 271.050 117.486,270.420 117.228,270.200 117.228 C 269.980 117.228,270.250 117.486,270.800 117.800 M273.910 119.201 C 275.608 120.237,276.164 120.236,274.600 119.200 C 273.940 118.763,273.220 118.405,273.000 118.404 C 272.780 118.404,273.189 118.762,273.910 119.201 M276.033 120.121 C 276.125 120.188,276.740 120.558,277.400 120.945 L 278.600 121.647 277.656 120.824 C 277.136 120.371,276.521 120.000,276.289 120.000 C 276.057 120.000,275.942 120.054,276.033 120.121 M279.709 122.400 C 280.269 122.840,280.860 123.200,281.024 123.200 C 281.188 123.200,280.907 122.840,280.400 122.400 C 279.893 121.960,279.301 121.600,279.085 121.600 C 278.869 121.600,279.150 121.960,279.709 122.400 M282.509 124.000 C 283.069 124.440,283.698 124.800,283.908 124.800 C 284.118 124.800,284.969 125.340,285.800 126.000 C 287.612 127.440,288.311 127.618,286.600 126.204 C 285.264 125.099,282.213 123.200,281.775 123.200 C 281.619 123.200,281.950 123.560,282.509 124.000 M333.974 125.100 C 334.937 126.255,335.802 127.200,335.896 127.200 C 336.168 127.200,333.704 124.182,332.926 123.562 C 332.539 123.253,333.010 123.945,333.974 125.100 M68.909 128.000 C 68.909 128.990,68.987 129.395,69.082 128.900 C 69.178 128.405,69.178 127.595,69.082 127.100 C 68.987 126.605,68.909 127.010,68.909 128.000 M288.600 128.291 C 289.040 128.732,291.091 130.591,293.158 132.423 C 295.225 134.255,298.353 137.564,300.108 139.777 C 303.507 144.061,303.924 144.548,303.390 143.600 C 301.766 140.722,295.684 134.070,290.383 129.375 C 288.750 127.930,287.448 127.137,288.600 128.291 M337.222 129.324 C 339.491 132.492,340.557 133.585,338.766 130.907 C 337.848 129.535,336.816 128.185,336.471 127.907 C 336.127 127.628,336.465 128.266,337.222 129.324 M68.920 132.800 C 68.920 134.010,68.995 134.505,69.087 133.900 C 69.178 133.295,69.178 132.305,69.087 131.700 C 68.995 131.095,68.920 131.590,68.920 132.800 M341.600 135.487 C 341.600 135.743,341.743 136.041,341.918 136.149 C 342.093 136.258,342.835 137.537,343.566 138.992 C 344.297 140.447,344.973 141.560,345.068 141.465 C 345.243 141.290,343.163 137.257,342.152 135.811 C 341.848 135.377,341.600 135.231,341.600 135.487 M108.574 145.600 C 108.574 151.210,108.630 153.505,108.699 150.700 C 108.768 147.895,108.768 143.305,108.699 140.500 C 108.630 137.695,108.574 139.990,108.574 145.600 M148.138 138.989 C 146.700 139.996,147.072 165.665,148.524 165.568 C 148.867 165.546,148.861 165.481,148.500 165.335 C 147.728 165.024,147.780 139.880,148.554 139.238 C 148.965 138.897,159.937 138.807,191.179 138.889 C 214.318 138.950,232.833 138.883,232.325 138.740 C 230.160 138.131,149.020 138.371,148.138 138.989 M234.305 139.483 C 234.802 139.579,235.522 139.575,235.905 139.475 C 236.287 139.375,235.880 139.296,235.000 139.301 C 234.120 139.305,233.807 139.387,234.305 139.483 M237.376 140.213 C 237.804 140.536,238.614 140.775,239.176 140.746 L 240.200 140.691 239.200 140.512 C 238.650 140.413,238.029 140.168,237.820 139.966 C 237.611 139.765,237.251 139.606,237.020 139.613 C 236.789 139.620,236.949 139.890,237.376 140.213 M242.209 141.561 C 242.424 141.771,243.140 142.071,243.800 142.228 C 245.348 142.595,245.000 142.254,243.209 141.649 C 242.444 141.390,241.994 141.350,242.209 141.561 M345.201 142.101 C 345.201 142.267,345.560 143.075,346.000 143.896 C 346.440 144.716,346.800 145.170,346.800 144.904 C 346.800 144.637,346.441 143.830,346.001 143.110 C 345.562 142.389,345.202 141.936,345.201 142.101 M245.811 142.938 C 246.610 143.483,248.400 144.056,248.400 143.768 C 248.400 143.597,245.654 142.400,245.262 142.400 C 245.130 142.400,245.377 142.642,245.811 142.938 M346.800 145.821 C 346.800 146.047,347.160 146.937,347.600 147.800 C 348.040 148.663,348.400 149.150,348.400 148.883 C 348.400 148.616,348.040 147.725,347.600 146.904 C 347.160 146.084,346.800 145.596,346.800 145.821 M306.400 148.631 C 306.400 148.856,306.592 149.232,306.826 149.466 C 307.061 149.701,307.780 150.952,308.425 152.246 C 309.070 153.541,309.598 154.385,309.598 154.121 C 309.600 153.588,308.081 150.622,307.060 149.164 C 306.697 148.646,306.400 148.406,306.400 148.631 M258.145 150.164 C 258.995 150.977,259.769 151.565,259.864 151.469 C 259.959 151.374,259.264 150.709,258.318 149.991 L 256.600 148.685 258.145 150.164 M348.414 150.024 C 348.406 150.366,348.664 150.996,348.987 151.424 C 349.739 152.418,349.748 151.709,349.000 150.400 C 348.634 149.759,348.423 149.624,348.414 150.024 M262.680 154.024 C 265.462 156.913,267.228 159.066,268.677 161.338 C 269.216 162.184,269.751 162.783,269.864 162.669 C 270.318 162.215,264.048 154.530,261.668 152.624 C 260.802 151.931,261.218 152.505,262.680 154.024 M349.618 153.274 C 349.608 153.645,349.797 154.455,350.037 155.074 C 350.277 155.693,350.802 157.820,351.203 159.800 C 351.604 161.780,351.948 162.950,351.966 162.400 C 351.984 161.850,351.730 160.140,351.402 158.600 C 350.737 155.490,349.645 152.228,349.618 153.274 M309.600 154.867 C 309.600 155.002,309.972 155.897,310.427 156.856 C 311.048 158.164,311.192 158.308,311.003 157.433 C 310.780 156.398,309.600 154.241,309.600 154.867 M311.228 159.400 C 311.227 159.840,311.490 160.549,311.813 160.976 C 312.556 161.959,312.557 161.653,311.816 159.946 C 311.411 159.014,311.230 158.846,311.228 159.400 M108.589 187.600 C 108.589 203.110,108.639 209.455,108.700 201.700 C 108.761 193.945,108.761 181.255,108.700 173.500 C 108.639 165.745,108.589 172.090,108.589 187.600 M312.476 163.400 C 312.463 164.280,312.789 165.990,313.200 167.200 C 313.652 168.532,313.958 169.035,313.974 168.474 C 313.988 167.964,313.796 167.167,313.548 166.702 C 313.299 166.237,312.961 164.944,312.797 163.828 C 312.514 161.898,312.499 161.877,312.476 163.400 M270.005 163.400 C 270.005 163.620,270.363 164.340,270.800 165.000 C 271.237 165.660,271.595 166.020,271.595 165.800 C 271.595 165.580,271.237 164.860,270.800 164.200 C 270.363 163.540,270.005 163.180,270.005 163.400 M352.313 166.000 C 352.684 169.363,352.682 183.093,352.310 186.200 L 352.023 188.600 352.587 185.800 C 353.343 182.047,353.344 169.962,352.589 166.200 L 352.027 163.400 352.313 166.000 M159.328 165.900 C 165.008 165.962,174.188 165.962,179.728 165.900 C 185.268 165.837,180.620 165.786,169.400 165.786 C 158.180 165.786,153.648 165.837,159.328 165.900 M195.924 165.899 C 199.073 165.967,204.113 165.967,207.124 165.899 C 210.136 165.831,207.560 165.776,201.400 165.776 C 195.240 165.776,192.776 165.832,195.924 165.899 M217.600 166.023 C 219.690 166.177,221.940 166.423,222.600 166.570 C 223.784 166.834,223.782 166.830,222.454 166.219 C 221.504 165.782,220.033 165.621,217.454 165.671 L 213.800 165.743 217.600 166.023 M225.400 167.171 C 226.554 167.449,229.955 169.191,231.200 170.142 C 231.722 170.540,231.728 170.509,231.252 169.901 C 230.496 168.938,226.173 166.791,225.088 166.841 C 224.401 166.873,224.472 166.947,225.400 167.171 M271.614 167.024 C 271.639 167.694,272.772 169.430,272.773 168.800 C 272.774 168.470,272.510 167.851,272.187 167.424 C 271.864 166.996,271.606 166.816,271.614 167.024 M273.037 170.800 C 273.172 171.570,273.436 172.920,273.624 173.800 C 274.084 175.955,274.056 181.381,273.574 183.600 C 272.760 187.349,272.693 188.887,273.443 186.600 C 274.528 183.292,274.620 175.212,273.609 172.000 C 273.159 170.570,272.902 170.030,273.037 170.800 M233.238 172.207 C 233.589 172.643,234.285 173.864,234.784 174.921 C 235.283 175.977,235.766 176.767,235.857 176.676 C 236.139 176.395,234.053 172.540,233.306 171.961 C 232.645 171.449,232.641 171.464,233.238 172.207 M314.150 177.400 C 314.151 179.820,314.216 180.758,314.296 179.485 C 314.376 178.212,314.375 176.232,314.294 175.085 C 314.214 173.938,314.149 174.980,314.150 177.400 M235.052 183.346 C 234.694 184.102,234.400 184.882,234.400 185.079 C 234.400 185.564,233.257 187.081,231.800 188.530 C 230.960 189.366,230.851 189.591,231.438 189.281 C 232.896 188.511,236.497 182.764,235.898 182.165 C 235.792 182.058,235.411 182.590,235.052 183.346 M313.516 185.400 C 313.050 188.229,312.313 191.360,311.749 192.908 C 310.934 195.147,311.127 195.681,312.000 193.600 C 312.415 192.610,312.765 191.309,312.778 190.708 C 312.790 190.108,313.083 188.910,313.428 188.046 C 313.774 187.183,313.994 185.874,313.918 185.138 L 313.780 183.800 313.516 185.400 M272.085 189.773 C 271.415 191.244,271.478 191.552,272.230 190.479 C 272.576 189.984,272.795 189.384,272.715 189.144 C 272.635 188.905,272.352 189.188,272.085 189.773 M351.233 191.808 C 350.926 193.563,350.433 195.698,350.137 196.550 C 349.842 197.403,349.610 198.393,349.622 198.750 C 349.649 199.526,350.891 195.509,351.592 192.380 C 351.866 191.159,352.023 189.812,351.941 189.388 C 351.859 188.963,351.541 190.052,351.233 191.808 M227.389 191.352 C 226.955 191.655,226.240 191.995,225.800 192.106 L 225.000 192.307 225.800 192.351 C 226.240 192.375,227.140 192.037,227.800 191.600 C 228.460 191.163,228.815 190.804,228.589 190.803 C 228.363 190.801,227.823 191.048,227.389 191.352 M271.232 192.329 C 271.214 192.619,270.930 193.127,270.600 193.457 C 270.270 193.787,270.000 194.249,270.000 194.483 C 270.000 194.716,270.374 194.432,270.832 193.850 C 271.290 193.268,271.574 192.569,271.464 192.296 C 271.313 191.922,271.255 191.930,271.232 192.329 M148.178 193.625 C 147.590 194.274,147.235 219.885,147.801 220.801 C 148.276 221.570,148.841 221.224,148.414 220.426 C 147.919 219.502,147.845 194.863,148.335 194.092 C 148.592 193.687,155.919 193.577,184.229 193.554 C 203.793 193.538,220.216 193.406,220.724 193.262 C 221.233 193.118,205.245 193.000,185.196 193.000 C 152.652 193.000,148.683 193.067,148.178 193.625 M310.832 195.891 C 310.814 196.161,310.178 197.684,309.418 199.275 C 308.658 200.867,308.098 202.232,308.175 202.308 C 308.441 202.574,311.233 196.298,311.048 195.850 C 310.923 195.544,310.853 195.558,310.832 195.891 M263.800 202.687 C 262.040 204.590,259.283 207.194,257.674 208.474 C 254.498 210.998,254.070 211.698,257.124 209.371 C 260.445 206.841,268.049 199.124,267.134 199.213 C 267.060 199.220,265.560 200.783,263.800 202.687 M348.645 200.887 C 348.290 201.705,348.000 202.635,348.000 202.955 C 348.000 203.274,347.741 204.045,347.425 204.668 C 347.109 205.290,345.716 208.125,344.330 210.967 C 342.944 213.808,341.628 216.328,341.405 216.567 C 341.182 216.805,340.464 217.810,339.808 218.800 C 339.153 219.790,338.058 221.320,337.375 222.200 C 336.691 223.080,335.632 224.520,335.022 225.400 L 333.911 227.000 334.983 225.800 C 338.659 221.683,342.509 215.785,345.165 210.200 C 346.316 207.780,347.514 205.322,347.829 204.738 C 348.143 204.154,348.400 203.339,348.400 202.927 C 348.400 202.515,348.683 201.773,349.030 201.279 C 349.376 200.784,349.576 200.159,349.475 199.890 C 349.373 199.620,348.999 200.069,348.645 200.887 M307.094 204.103 L 306.388 205.400 307.194 204.456 C 307.880 203.652,308.246 202.794,307.900 202.803 C 307.845 202.804,307.482 203.389,307.094 204.103 M304.078 208.705 L 303.155 210.200 304.178 209.078 C 304.740 208.460,305.200 207.785,305.200 207.578 C 305.200 206.975,305.055 207.120,304.078 208.705 M302.119 211.436 C 301.723 212.006,299.915 214.175,298.100 216.255 C 296.285 218.336,294.800 220.145,294.800 220.277 C 294.800 220.547,295.566 219.731,298.952 215.853 C 301.244 213.227,303.347 210.400,303.007 210.400 C 302.914 210.400,302.514 210.866,302.119 211.436 M252.800 211.600 C 252.293 212.040,252.012 212.400,252.176 212.400 C 252.340 212.400,252.931 212.040,253.491 211.600 C 254.050 211.160,254.331 210.800,254.115 210.800 C 253.899 210.800,253.307 211.160,252.800 211.600 M250.056 213.213 C 248.816 214.246,249.375 214.235,250.691 213.200 C 251.250 212.760,251.549 212.406,251.354 212.413 C 251.159 212.421,250.575 212.781,250.056 213.213 M68.893 214.000 C 68.893 214.770,68.975 215.085,69.076 214.700 C 69.176 214.315,69.176 213.685,69.076 213.300 C 68.975 212.915,68.893 213.230,68.893 214.000 M247.200 214.600 C 246.926 214.930,246.409 215.214,246.051 215.232 C 245.602 215.253,245.562 215.328,245.923 215.473 C 246.211 215.588,246.751 215.417,247.123 215.093 C 247.495 214.769,248.070 214.405,248.400 214.284 C 248.902 214.099,248.893 214.058,248.349 214.032 C 247.991 214.014,247.474 214.270,247.200 214.600 M243.389 216.149 C 242.955 216.451,241.970 216.834,241.200 217.000 C 240.430 217.166,239.440 217.571,239.000 217.900 L 238.200 218.498 239.000 218.201 C 239.440 218.038,240.520 217.673,241.400 217.391 C 243.444 216.737,245.587 215.606,244.789 215.602 C 244.453 215.601,243.823 215.847,243.389 216.149 M108.573 227.000 C 108.573 232.500,108.630 234.805,108.699 232.123 C 108.768 229.441,108.768 224.941,108.699 222.123 C 108.630 219.305,108.574 221.500,108.573 227.000 M234.800 218.772 C 234.030 218.926,233.007 219.265,232.526 219.526 C 232.046 219.787,230.695 220.000,229.524 220.000 C 228.353 220.000,226.766 220.225,225.997 220.499 C 224.934 220.879,215.552 221.047,186.800 221.203 L 149.000 221.408 186.403 221.504 C 212.510 221.571,224.227 221.468,225.203 221.164 C 225.971 220.925,227.950 220.576,229.600 220.389 C 232.642 220.044,239.037 218.430,237.200 218.470 C 236.650 218.482,235.570 218.618,234.800 218.772 M291.787 222.900 L 289.400 225.400 291.900 223.013 C 293.275 221.699,294.400 220.574,294.400 220.513 C 294.400 220.217,294.005 220.578,291.787 222.900 M287.800 226.250 C 287.081 226.862,286.934 227.105,287.433 226.857 C 288.166 226.493,289.541 225.176,289.149 225.214 C 289.067 225.222,288.460 225.688,287.800 226.250 M326.316 234.745 C 317.734 243.282,312.054 247.901,306.737 250.664 C 305.562 251.275,304.420 251.924,304.200 252.105 C 303.980 252.287,302.540 253.236,301.000 254.215 C 299.460 255.194,298.380 255.982,298.600 255.966 C 298.820 255.950,299.810 255.423,300.800 254.794 C 301.790 254.165,304.040 252.801,305.800 251.763 C 313.072 247.472,317.665 243.840,325.734 236.000 C 329.616 232.229,332.553 229.024,331.927 229.245 C 331.857 229.269,329.332 231.744,326.316 234.745 M281.158 230.929 C 280.191 231.660,278.590 232.758,277.600 233.369 C 276.610 233.980,276.129 234.372,276.532 234.240 C 277.738 233.846,283.767 229.631,283.158 229.609 C 283.024 229.604,282.124 230.198,281.158 230.929 M274.000 235.200 C 273.450 235.630,273.152 235.986,273.337 235.991 C 273.522 235.996,274.131 235.640,274.691 235.200 C 275.250 234.760,275.549 234.404,275.354 234.409 C 275.159 234.414,274.550 234.770,274.000 235.200 M271.200 236.824 C 270.870 237.031,270.150 237.388,269.600 237.617 C 267.738 238.394,266.555 239.188,267.251 239.194 C 267.609 239.197,268.117 238.942,268.379 238.626 C 268.641 238.310,269.370 237.938,270.000 237.800 C 270.630 237.662,271.359 237.290,271.621 236.974 C 272.164 236.321,272.060 236.284,271.200 236.824 M108.520 239.600 C 108.520 240.810,108.595 241.305,108.687 240.700 C 108.778 240.095,108.778 239.105,108.687 238.500 C 108.595 237.895,108.520 238.390,108.520 239.600 M68.909 240.000 C 68.909 240.990,68.987 241.395,69.082 240.900 C 69.178 240.405,69.178 239.595,69.082 239.100 C 68.987 238.605,68.909 239.010,68.909 240.000 M264.406 240.023 C 263.640 240.450,263.280 240.799,263.606 240.797 C 263.933 240.796,264.740 240.437,265.400 240.000 C 266.931 238.986,266.238 239.002,264.406 240.023 M256.576 242.987 C 255.566 243.751,256.004 243.759,257.454 243.002 C 258.084 242.674,258.319 242.404,257.976 242.402 C 257.634 242.401,257.004 242.664,256.576 242.987 M108.546 246.293 C 108.596 248.132,108.824 249.370,109.171 249.693 C 109.619 250.108,109.656 250.093,109.378 249.607 C 109.191 249.281,108.909 247.751,108.752 246.207 L 108.467 243.400 108.546 246.293 M251.600 244.600 C 250.267 245.362,251.194 245.364,252.654 244.602 C 253.284 244.274,253.530 244.010,253.200 244.017 C 252.870 244.023,252.150 244.286,251.600 244.600 M247.473 245.460 C 247.330 245.603,246.355 245.951,245.306 246.233 C 244.258 246.515,243.793 246.758,244.274 246.773 C 244.755 246.788,245.655 246.593,246.274 246.341 C 246.893 246.089,248.120 245.751,249.000 245.591 L 250.600 245.300 249.167 245.250 C 248.378 245.223,247.616 245.317,247.473 245.460 M238.687 247.446 C 238.551 247.582,237.846 247.833,237.120 248.005 L 235.800 248.318 237.024 248.359 C 237.696 248.382,238.596 248.136,239.024 247.813 C 239.451 247.490,239.605 247.220,239.367 247.213 C 239.128 247.206,238.822 247.311,238.687 247.446 M224.000 249.434 L 222.200 249.990 224.200 249.751 C 225.300 249.619,227.460 249.378,229.000 249.215 L 231.800 248.917 228.800 248.898 C 227.150 248.887,224.990 249.129,224.000 249.434 M137.931 250.300 C 153.403 250.358,178.603 250.358,193.931 250.300 C 209.259 250.242,196.600 250.194,165.800 250.194 C 135.000 250.195,122.459 250.242,137.931 250.300 M296.400 256.800 C 295.893 257.240,295.612 257.600,295.776 257.600 C 295.940 257.600,296.531 257.240,297.091 256.800 C 297.650 256.360,297.931 256.000,297.715 256.000 C 297.499 256.000,296.907 256.360,296.400 256.800 M293.389 258.144 C 292.955 258.444,291.701 259.164,290.603 259.744 C 289.505 260.325,288.787 260.800,289.008 260.800 C 289.229 260.800,290.758 260.085,292.405 259.211 C 294.052 258.336,295.125 257.616,294.789 257.611 C 294.453 257.605,293.823 257.845,293.389 258.144 M286.406 261.623 C 285.640 262.050,285.280 262.399,285.606 262.397 C 285.933 262.396,286.740 262.037,287.400 261.600 C 288.931 260.586,288.238 260.602,286.406 261.623 M283.200 263.000 C 282.620 263.332,282.452 263.572,282.800 263.573 C 283.130 263.574,283.749 263.310,284.176 262.987 C 285.164 262.240,284.515 262.248,283.200 263.000 M279.400 264.609 C 278.300 265.138,277.670 265.570,278.000 265.568 C 278.330 265.566,279.410 265.130,280.400 264.600 C 282.730 263.352,281.997 263.359,279.400 264.609 M275.896 265.837 C 275.766 265.967,274.971 266.319,274.130 266.619 C 273.288 266.919,272.895 267.173,273.256 267.182 C 273.617 267.192,274.697 266.844,275.656 266.409 C 276.615 265.974,277.115 265.614,276.767 265.609 C 276.418 265.604,276.027 265.707,275.896 265.837 M270.600 267.814 C 269.685 268.233,269.590 268.365,270.200 268.369 C 270.640 268.372,271.349 268.110,271.776 267.787 C 272.729 267.067,272.206 267.079,270.600 267.814 M265.400 269.209 C 260.491 270.775,257.440 271.600,256.559 271.600 C 256.060 271.600,255.145 271.805,254.526 272.055 C 253.907 272.305,252.770 272.645,252.000 272.809 C 250.728 273.081,250.701 273.112,251.713 273.154 C 252.325 273.179,253.472 272.930,254.262 272.600 C 255.051 272.270,256.081 272.001,256.549 272.001 C 257.416 272.003,261.015 271.049,266.400 269.392 C 268.050 268.884,269.040 268.463,268.600 268.456 C 268.160 268.449,266.720 268.788,265.400 269.209 M68.861 273.474 C 68.786 276.014,69.339 277.604,70.290 277.587 C 70.932 277.576,70.923 277.517,70.200 276.970 C 69.611 276.526,69.337 275.710,69.161 273.883 L 68.922 271.400 68.861 273.474 M246.400 273.488 C 245.850 273.587,245.229 273.832,245.020 274.034 C 244.811 274.235,243.821 274.429,242.820 274.464 C 241.191 274.521,241.147 274.546,242.400 274.697 C 243.170 274.790,244.790 274.582,246.000 274.236 C 247.210 273.889,248.740 273.542,249.400 273.463 C 250.254 273.361,250.139 273.318,249.000 273.314 C 248.120 273.311,246.950 273.390,246.400 273.488 M233.929 275.309 C 233.464 275.478,233.155 275.688,233.242 275.775 C 233.442 275.976,240.091 275.242,240.341 274.992 C 240.645 274.688,234.845 274.974,233.929 275.309 M220.633 276.700 C 220.468 276.865,186.913 277.093,146.067 277.206 L 71.800 277.412 145.200 277.489 C 205.401 277.552,219.211 277.468,222.000 277.023 C 225.357 276.486,225.372 276.479,223.167 276.440 C 221.938 276.418,220.798 276.535,220.633 276.700 " stroke="none" fill="#867c6e" fill-rule="evenodd"></path><path id="path4" d="M221.505 78.683 C 222.002 78.779,222.722 78.775,223.105 78.675 C 223.487 78.575,223.080 78.496,222.200 78.501 C 221.320 78.505,221.007 78.587,221.505 78.683 M239.100 79.889 C 239.815 79.978,240.985 79.978,241.700 79.889 C 242.415 79.801,241.830 79.728,240.400 79.728 C 238.970 79.728,238.385 79.801,239.100 79.889 M68.940 94.000 C 68.940 95.870,69.009 96.635,69.093 95.700 C 69.177 94.765,69.177 93.235,69.093 92.300 C 69.009 91.365,68.940 92.130,68.940 94.000 M68.934 100.400 C 68.934 102.050,69.005 102.725,69.091 101.900 C 69.178 101.075,69.178 99.725,69.091 98.900 C 69.005 98.075,68.934 98.750,68.934 100.400 M68.901 106.200 C 68.905 107.080,68.987 107.393,69.083 106.895 C 69.179 106.398,69.175 105.678,69.075 105.295 C 68.975 104.913,68.896 105.320,68.901 106.200 M108.996 178.200 C 108.996 216.920,109.043 232.701,109.100 213.268 C 109.157 193.836,109.157 162.156,109.100 142.868 C 109.043 123.581,108.996 139.480,108.996 178.200 M68.940 112.800 C 68.940 114.670,69.009 115.435,69.093 114.500 C 69.177 113.565,69.177 112.035,69.093 111.100 C 69.009 110.165,68.940 110.930,68.940 112.800 M329.200 119.400 C 329.946 120.170,330.647 120.800,330.757 120.800 C 330.867 120.800,330.346 120.170,329.600 119.400 C 328.854 118.630,328.153 118.000,328.043 118.000 C 327.933 118.000,328.454 118.630,329.200 119.400 M68.931 123.000 C 68.933 124.540,69.005 125.121,69.092 124.291 C 69.179 123.461,69.177 122.201,69.089 121.491 C 69.000 120.781,68.929 121.460,68.931 123.000 M294.783 134.100 C 295.764 135.145,296.619 136.000,296.683 136.000 C 296.984 136.000,296.666 135.641,294.900 133.983 L 293.000 132.200 294.783 134.100 M68.901 136.200 C 68.905 137.080,68.987 137.393,69.083 136.895 C 69.179 136.398,69.175 135.678,69.075 135.295 C 68.975 134.913,68.896 135.320,68.901 136.200 M148.176 138.630 C 147.749 138.976,147.670 139.111,148.000 138.930 C 148.330 138.748,167.050 138.508,189.600 138.396 L 230.600 138.193 189.776 138.096 C 153.137 138.010,148.873 138.065,148.176 138.630 M68.909 140.400 C 68.909 141.390,68.987 141.795,69.082 141.300 C 69.178 140.805,69.178 139.995,69.082 139.500 C 68.987 139.005,68.909 139.410,68.909 140.400 M68.963 151.600 C 68.963 155.230,69.023 156.715,69.098 154.900 C 69.172 153.085,69.172 150.115,69.098 148.300 C 69.023 146.485,68.963 147.970,68.963 151.600 M68.989 186.000 C 68.989 200.850,69.039 206.925,69.100 199.500 C 69.161 192.075,69.161 179.925,69.100 172.500 C 69.039 165.075,68.989 171.150,68.989 186.000 M313.742 172.600 C 313.741 174.580,313.808 175.440,313.892 174.512 C 313.976 173.584,313.977 171.964,313.895 170.912 C 313.812 169.860,313.743 170.620,313.742 172.600 M353.320 175.600 C 353.320 176.810,353.395 177.305,353.487 176.700 C 353.578 176.095,353.578 175.105,353.487 174.500 C 353.395 173.895,353.320 174.390,353.320 175.600 M313.701 182.600 C 313.705 183.480,313.787 183.793,313.883 183.295 C 313.979 182.798,313.975 182.078,313.875 181.695 C 313.775 181.313,313.696 181.720,313.701 182.600 M68.973 226.800 C 68.973 232.190,69.030 234.395,69.099 231.700 C 69.168 229.005,69.168 224.595,69.099 221.900 C 69.030 219.205,68.973 221.410,68.973 226.800 M323.775 238.100 L 322.600 239.400 323.900 238.225 C 324.615 237.579,325.200 236.994,325.200 236.925 C 325.200 236.616,324.870 236.888,323.775 238.100 M68.961 247.600 C 68.961 251.010,69.022 252.405,69.097 250.700 C 69.172 248.995,69.172 246.205,69.097 244.500 C 69.022 242.795,68.961 244.190,68.961 247.600 M68.946 258.600 C 68.947 260.800,69.014 261.649,69.095 260.487 C 69.176 259.324,69.176 257.524,69.093 256.487 C 69.011 255.449,68.945 256.400,68.946 258.600 M68.928 266.000 C 68.928 267.430,69.001 268.015,69.089 267.300 C 69.178 266.585,69.178 265.415,69.089 264.700 C 69.001 263.985,68.928 264.570,68.928 266.000 M226.291 276.689 C 227.001 276.777,228.261 276.779,229.091 276.692 C 229.921 276.605,229.340 276.533,227.800 276.531 C 226.260 276.529,225.581 276.600,226.291 276.689 M106.500 277.900 C 126.465 277.957,159.135 277.957,179.100 277.900 C 199.065 277.843,182.730 277.796,142.800 277.796 C 102.870 277.796,86.535 277.843,106.500 277.900 " stroke="none" fill="#797c74" fill-rule="evenodd"></path></g></svg>